<svg width="120" height="120" viewBox="0 0 57 91" fill="none" xmlns="http://www.w3.org/2000/svg">
<g clip-path="url(#clip0_403_207)">
<path d="M14.25 91C22.116 91 28.5 84.2053 28.5 75.8333V60.6667H14.25C6.384 60.6667 0 67.4613 0 75.8333C0 84.2053 6.384 91 14.25 91Z" fill="#0ACF83"/>
<path d="M0 45.5C0 37.128 6.384 30.3333 14.25 30.3333H28.5V60.6667H14.25C6.384 60.6667 0 53.872 0 45.5Z" fill="#A259FF"/>
<path d="M0 15.1667C0 6.79467 6.384 0 14.25 0H28.5V30.3333H14.25C6.384 30.3333 0 23.5387 0 15.1667Z" fill="#F24E1E"/>
<path d="M28.5 0H42.75C50.616 0 57 6.79467 57 15.1667C57 23.5387 50.616 30.3333 42.75 30.3333H28.5V0Z" fill="#FF7262"/>
<path d="M57 45.5C57 53.872 50.616 60.6667 42.75 60.6667C34.884 60.6667 28.5 53.872 28.5 45.5C28.5 37.128 34.884 30.3333 42.75 30.3333C50.616 30.3333 57 37.128 57 45.5Z" fill="#1ABCFE"/>
</g>
<defs>
<clipPath id="clip0_403_207">
<rect width="57" height="91" fill="white"/>
</clipPath>
</defs>
</svg>
