<?xml version="1.0" standalone="no"?>
<!DOCTYPE svg PUBLIC "-//W3C//DTD SVG 20010904//EN"
 "http://www.w3.org/TR/2001/REC-SVG-20010904/DTD/svg10.dtd">
<svg version="1.0" xmlns="http://www.w3.org/2000/svg"
 width="225.000000pt" height="225.000000pt" viewBox="0 0 225.000000 225.000000"
 preserveAspectRatio="xMidYMid meet">

<g transform="translate(0.000000,225.000000) scale(0.100000,-0.100000)"
fill="#000000" stroke="none">
<path d="M408 1610 c-200 -4 -229 -7 -245 -23 -17 -16 -18 -49 -18 -461 0
-422 1 -445 19 -465 18 -20 28 -21 242 -21 l222 0 4 -155 c3 -145 4 -156 26
-177 l23 -23 685 -3 685 -2 30 29 29 29 0 606 0 606 -495 0 c-422 0 -495 2
-495 14 0 8 -12 24 -26 35 -25 20 -38 21 -243 19 -119 -1 -318 -5 -443 -8z
m-24 -197 c3 -10 22 -103 42 -207 l38 -190 22 70 c13 38 41 129 64 202 l41
132 49 0 c48 0 49 -1 59 -37 21 -75 110 -368 110 -362 1 3 19 95 41 204 22
109 40 200 40 202 0 2 25 3 55 3 30 0 55 -1 55 -3 0 -23 -122 -603 -129 -610
-4 -4 -30 -7 -57 -5 l-49 3 -27 85 c-15 47 -44 141 -65 209 l-38 124 -66 -209
-66 -209 -56 -3 c-52 -3 -57 -1 -62 20 -13 55 -115 573 -115 585 0 9 16 13 54
13 43 0 56 -4 60 -17z"/>
</g>
</svg>
