<svg width="120" height="120" viewBox="0 0 88 87" fill="none" xmlns="http://www.w3.org/2000/svg">
<g clip-path="url(#clip0_402_207)">
<path d="M44 86.8387C42.6336 86.8387 41.3583 86.5196 40.1741 85.9612L28.0579 79.6587C26.236 78.7812 27.147 78.4621 27.6935 78.3025C30.1531 77.5845 30.6085 77.425 33.1592 76.1483C33.4328 75.9887 33.7972 76.0685 34.0701 76.2281L43.3623 81.0946C43.7267 81.2542 44.1822 81.2542 44.4555 81.0946L80.8036 62.666C81.168 62.5064 81.3502 62.1873 81.3502 61.7885V25.0103C81.3502 24.6115 81.168 24.2924 80.8036 24.1328L44.4555 5.78364C44.0911 5.62409 43.6356 5.62409 43.3623 5.78364L7.01422 24.1331C6.64984 24.2927 6.46766 24.6915 6.46766 25.0106V61.7885C6.46766 62.1076 6.64984 62.5064 7.01422 62.666L16.9441 67.6918C22.319 70.0851 25.6891 67.2929 25.6891 64.5008V28.2013C25.6891 27.7227 26.1449 27.244 26.7826 27.244H31.4287C31.9753 27.244 32.5218 27.6429 32.5218 28.2013V64.5005C32.5218 70.803 28.6045 74.4727 21.7721 74.4727C19.6769 74.4727 18.0373 74.4727 13.3915 72.4783L3.82594 67.6918C1.4575 66.4949 0 64.2612 0 61.8679V25.0904C0 22.6972 1.4575 20.4635 3.82594 19.2665L40.1741 0.837888C42.4514 -0.278963 45.5486 -0.278963 47.8259 0.837888L84.1741 19.2665C86.5425 20.4632 88 22.6969 88 25.0904V61.8682C88 64.2615 86.5425 66.4952 84.1741 67.6918L47.8259 86.1211C46.6417 86.5997 45.2753 86.839 44 86.839M55.2049 61.5491C39.2628 61.5491 35.9834 55.1671 35.9834 49.7421C35.9834 49.2635 36.4389 48.7848 37.0765 48.7848H41.8134C42.36 48.7848 42.8158 49.1039 42.8158 49.5826C43.5445 53.8107 45.6397 55.8851 55.296 55.8851C62.9482 55.8851 66.2279 54.3694 66.2279 50.7795C66.2279 48.705 65.317 47.1893 53.383 46.1519C43.4534 45.2744 37.2587 43.3598 37.2587 36.4194C37.2587 29.957 43.4531 26.1278 53.8385 26.1278C65.4988 26.1278 71.2381 29.6379 71.9668 37.2966C71.9668 37.5359 71.8757 37.7753 71.6935 38.0146C71.5113 38.1741 71.2381 38.3337 70.9648 38.3337H66.2279C65.7721 38.3337 65.317 38.0146 65.2255 37.6157C64.1324 33.2281 61.3085 31.7921 53.8385 31.7921C45.4578 31.7921 44.4555 34.3449 44.4555 36.2595C44.4555 38.5733 45.6397 39.291 56.9357 40.5674C68.1409 41.8438 73.4243 43.6789 73.4243 50.5399C73.3332 57.5604 66.7745 61.5491 55.2049 61.5491Z" fill="#539E43"/>
</g>
<defs>
<clipPath id="clip0_402_207">
<rect width="88" height="87" fill="white"/>
</clipPath>
</defs>
</svg>
