<svg width="50" height="50" viewBox="0 0 50 50" fill="none" xmlns="http://www.w3.org/2000/svg">
<path d="M11.1042 6.81668C12.4936 6.32122 14.0006 6.25882 15.4262 6.6377C16.8518 7.01659 18.129 7.81894 19.0891 8.93883C20.0492 10.0587 20.647 11.4435 20.8037 12.9102C20.9604 14.377 20.6685 15.8568 19.9667 17.1542L42.2771 39.4667L39.3313 42.4125L17.0188 20.1C15.721 20.7998 14.2417 21.09 12.7757 20.9323C11.3097 20.7746 9.92596 20.1765 8.80671 19.2167C7.68745 18.2569 6.88526 16.9805 6.50584 15.5558C6.12642 14.131 6.18758 12.6247 6.68127 11.2354L11.3417 15.8958C11.9311 16.4651 12.7204 16.7801 13.5398 16.773C14.3592 16.7658 15.143 16.4372 15.7224 15.8578C16.3018 15.2784 16.6304 14.4946 16.6375 13.6752C16.6447 12.8559 16.3297 12.0665 15.7604 11.4771L11.1042 6.81668ZM32.7021 10.7396L39.3313 7.05626L42.2771 10.0042L38.5938 16.6313L34.9104 17.3688L30.4938 21.7875L27.5458 18.8417L31.9646 14.4229L32.7021 10.7396ZM18.7063 27.6813L21.6542 30.6271L10.6042 41.675C10.2286 42.0517 9.72306 42.2704 9.19133 42.2864C8.6596 42.3023 8.14192 42.1142 7.74442 41.7606C7.34693 41.4071 7.09973 40.9149 7.05351 40.385C7.00729 39.855 7.16556 39.3274 7.49585 38.9104L7.65835 38.7292L18.7063 27.6813Z" fill="#191919"/>
</svg>
